{
  "accessors": [
    {
      "bufferView": 2,
      "componentType": 5126,
      "count": 2504,
      "max": [
        3.2235100269317627,
        2.2683300971984863,
        6.7342700958251953
      ],
      "min": [
        -3.1879599094390869,
        -3.1492600440979004,
        -0.012489999644458294
      ],
      "type": "VEC3"
    },
    {
      "bufferView": 2,
      "byteOffset": 30048,
      "componentType": 5126,
      "count": 2504,
      "max": [
        1,
        1,
        1
      ],
      "min": [
        -1,
        -1,
        -1
      ],
      "type": "VEC3"
    },
    {
      "bufferView": 3,
      "componentType": 5126,
      "count": 2504,
      "max": [
        1,
        1,
        0.99999988079071045,
        1
      ],
      "min": [
        -1,
        -1,
        -1,
        -1
      ],
      "type": "VEC4"
    },
    {
      "bufferView": 1,
      "componentType": 5126,
      "count": 2504,
      "max": [
        0.99937999248504639,
        0.99747997522354126
      ],
      "min": [
        0.0037299999967217445,
        0.0011200000299140811
      ],
      "type": "VEC2"
    },
    {
      "bufferView": 0,
      "componentType": 5125,
      "count": 3918,
      "max": [
        2503
      ],
      "min": [
        0
      ],
      "type": "SCALAR"
    }
  ],
  "asset": {
    "extras": {
      "author": "3DHaupt (https://sketchfab.com/dennish2010)",
      "license": "CC-BY-NC-ND-4.0 (http://creativecommons.org/licenses/by-nc-nd/4.0/)",
      "source": "https://sketchfab.com/models/dpCA3StfXM03WZRqwZglHiv4fj6",
      "title": "Big Old House"
    },
    "generator": "Sketchfab-3.28.5",
    "version": "2.0"
  },
  "bufferViews": [
    {
      "buffer": 0,
      "byteLength": 15672,
      "byteOffset": 0,
      "name": "floatBufferViews",
      "target": 34963
    },
    {
      "buffer": 0,
      "byteLength": 20032,
      "byteOffset": 15672,
      "byteStride": 8,
      "name": "floatBufferViews",
      "target": 34962
    },
    {
      "buffer": 0,
      "byteLength": 60096,
      "byteOffset": 35704,
      "byteStride": 12,
      "name": "floatBufferViews",
      "target": 34962
    },
    {
      "buffer": 0,
      "byteLength": 40064,
      "byteOffset": 95800,
      "byteStride": 16,
      "name": "floatBufferViews",
      "target": 34962
    }
  ],
  "buffers": [
    {
      "byteLength": 135864,
      "uri": "scene.bin"
    }
  ],
  "images": [
    {
      "uri": "textures/Old_Big_House_emissive.jpeg"
    },
    {
      "uri": "textures/Old_Big_House_normal.png"
    },
    {
      "uri": "textures/Old_Big_House_baseColor.jpeg"
    }
  ],
  "materials": [
    {
      "doubleSided": false,
      "emissiveFactor": [
        0.050000000000000003,
        0.050000000000000003,
        0.050000000000000003
      ],
      "emissiveTexture": {
        "index": 0,
        "texCoord": 0
      },
      "name": "Old_Big_House",
      "normalTexture": {
        "index": 1,
        "scale": 0.40000000600000002,
        "texCoord": 0
      },
      "pbrMetallicRoughness": {
        "baseColorFactor": [
          1,
          1,
          1,
          1
        ],
        "baseColorTexture": {
          "index": 2,
          "texCoord": 0
        },
        "metallicFactor": 0.14999999999999999,
        "roughnessFactor": 0.82999999999999996
      }
    }
  ],
  "meshes": [
    {
      "name": "Old_Big_House_0",
      "primitives": [
        {
          "attributes": {
            "NORMAL": 1,
            "POSITION": 0,
            "TANGENT": 2,
            "TEXCOORD_0": 3
          },
          "indices": 4,
          "material": 0,
          "mode": 4
        }
      ]
    }
  ],
  "nodes": [
    {
      "children": [
        1
      ],
      "name": "RootNode (gltf orientation matrix)",
      "rotation": [
        -0.70710678118654746,
        -0,
        -0,
        0.70710678118654757
      ]
    },
    {
      "children": [
        2
      ],
      "name": "RootNode (model correction matrix)"
    },
    {
      "children": [
        3
      ],
      "name": "Root"
    },
    {
      "children": [
        4
      ],
      "name": "Old_Big_House"
    },
    {
      "mesh": 0,
      "name": "Old_Big_House_0"
    }
  ],
  "samplers": [
    {
      "magFilter": 9729,
      "minFilter": 9987,
      "wrapS": 10497,
      "wrapT": 10497
    }
  ],
  "scene": 0,
  "scenes": [
    {
      "name": "OSG_Scene",
      "nodes": [
        0
      ]
    }
  ],
  "textures": [
    {
      "sampler": 0,
      "source": 0
    },
    {
      "sampler": 0,
      "source": 1
    },
    {
      "sampler": 0,
      "source": 2
    }
  ]
}

