{
  "accessors": [
    {
      "bufferView": 2,
      "componentType": 5126,
      "count": 900,
      "max": [
        258.432373046875,
        81.711288452148438,
        387.39569091796875
      ],
      "min": [
        -261.25216674804688,
        -82.822662353515625,
        0
      ],
      "type": "VEC3"
    },
    {
      "bufferView": 2,
      "byteOffset": 10800,
      "componentType": 5126,
      "count": 900,
      "max": [
        1,
        1,
        1
      ],
      "min": [
        -1,
        -1,
        -1
      ],
      "type": "VEC3"
    },
    {
      "bufferView": 3,
      "componentType": 5126,
      "count": 900,
      "max": [
        1,
        1,
        1,
        1
      ],
      "min": [
        -1,
        -1,
        -1,
        -1
      ],
      "type": "VEC4"
    },
    {
      "bufferView": 1,
      "componentType": 5126,
      "count": 900,
      "max": [
        1,
        1
      ],
      "min": [
        -0.25,
        0
      ],
      "type": "VEC2"
    },
    {
      "bufferView": 0,
      "componentType": 5125,
      "count": 2376,
      "max": [
        899
      ],
      "min": [
        0
      ],
      "type": "SCALAR"
    },
    {
      "bufferView": 2,
      "byteOffset": 21600,
      "componentType": 5126,
      "count": 50,
      "max": [
        243.94613647460938,
        7.8890337944030762,
        142.89982604980469
      ],
      "min": [
        -243.94613647460938,
        -10.64652156829834,
        -142.89982604980469
      ],
      "type": "VEC3"
    },
    {
      "bufferView": 2,
      "byteOffset": 22200,
      "componentType": 5126,
      "count": 50,
      "max": [
        0.042117472738027573,
        0.99998867511749268,
        0.082668542861938477
      ],
      "min": [
        -0.042117472738027573,
        -0.9999886155128479,
        -0.082668542861938477
      ],
      "type": "VEC3"
    },
    {
      "bufferView": 3,
      "byteOffset": 14400,
      "componentType": 5126,
      "count": 50,
      "max": [
        0.9999992847442627,
        0.041952136904001236,
        0.012876668944954872,
        1
      ],
      "min": [
        0.99903661012649536,
        -0.032556124031543732,
        -0.0033215915318578482,
        -1
      ],
      "type": "VEC4"
    },
    {
      "bufferView": 1,
      "byteOffset": 7200,
      "componentType": 5126,
      "count": 50,
      "max": [
        1,
        1
      ],
      "min": [
        0,
        0
      ],
      "type": "VEC2"
    },
    {
      "bufferView": 1,
      "byteOffset": 7600,
      "componentType": 5126,
      "count": 50,
      "max": [
        1,
        1
      ],
      "min": [
        0,
        0
      ],
      "type": "VEC2"
    },
    {
      "bufferView": 0,
      "byteOffset": 9504,
      "componentType": 5125,
      "count": 192,
      "max": [
        49
      ],
      "min": [
        0
      ],
      "type": "SCALAR"
    },
    {
      "bufferView": 2,
      "byteOffset": 22800,
      "componentType": 5126,
      "count": 36,
      "max": [
        1.0780888260342181e-05,
        59.838024139404297,
        59.837944030761719
      ],
      "min": [
        -500,
        -59.837944030761719,
        -59.837970733642578
      ],
      "type": "VEC3"
    },
    {
      "bufferView": 2,
      "byteOffset": 23232,
      "componentType": 5126,
      "count": 36,
      "max": [
        1.6867686269961268e-07,
        0.93969273567199707,
        0.93969273567199707
      ],
      "min": [
        -1.6901572053029668e-07,
        -0.93969273567199707,
        -0.93969273567199707
      ],
      "type": "VEC3"
    },
    {
      "bufferView": 3,
      "byteOffset": 15200,
      "componentType": 5126,
      "count": 36,
      "max": [
        1.1539503219637481e-07,
        0.93969273567199707,
        0.93969267606735229,
        1
      ],
      "min": [
        -1.6867605268089392e-07,
        -0.93969267606735229,
        -0.93969273567199707,
        -1
      ],
      "type": "VEC4"
    },
    {
      "bufferView": 1,
      "byteOffset": 8000,
      "componentType": 5126,
      "count": 36,
      "max": [
        0.875,
        1
      ],
      "min": [
        -0.125,
        0
      ],
      "type": "VEC2"
    },
    {
      "bufferView": 1,
      "byteOffset": 8288,
      "componentType": 5126,
      "count": 36,
      "max": [
        0.875,
        1
      ],
      "min": [
        -0.125,
        0
      ],
      "type": "VEC2"
    },
    {
      "bufferView": 0,
      "byteOffset": 10272,
      "componentType": 5125,
      "count": 96,
      "max": [
        35
      ],
      "min": [
        0
      ],
      "type": "SCALAR"
    }
  ],
  "asset": {
    "extras": {
      "author": "Petro.Stepaniuk (https://sketchfab.com/Petro.Stepaniuk)",
      "license": "CC-BY-4.0 (http://creativecommons.org/licenses/by/4.0/)",
      "source": "https://sketchfab.com/models/fbb58872790f4e6bbee421c775f939eb",
      "title": "barbed wire mesh fence"
    },
    "generator": "Sketchfab-4.4.0",
    "version": "2.0"
  },
  "bufferViews": [
    {
      "buffer": 0,
      "byteLength": 10656,
      "byteOffset": 0,
      "name": "floatBufferViews",
      "target": 34963
    },
    {
      "buffer": 0,
      "byteLength": 8576,
      "byteOffset": 10656,
      "byteStride": 8,
      "name": "floatBufferViews",
      "target": 34962
    },
    {
      "buffer": 0,
      "byteLength": 23664,
      "byteOffset": 19232,
      "byteStride": 12,
      "name": "floatBufferViews",
      "target": 34962
    },
    {
      "buffer": 0,
      "byteLength": 15776,
      "byteOffset": 42896,
      "byteStride": 16,
      "name": "floatBufferViews",
      "target": 34962
    }
  ],
  "buffers": [
    {
      "byteLength": 58672,
      "uri": "scene.bin"
    }
  ],
  "images": [
    {
      "uri": "textures/02_-_Default_baseColor.png"
    },
    {
      "uri": "textures/02_-_Default_metallicRoughness.png"
    },
    {
      "uri": "textures/03_-_Default_baseColor.png"
    },
    {
      "uri": "textures/03_-_Default_metallicRoughness.png"
    }
  ],
  "materials": [
    {
      "doubleSided": true,
      "emissiveFactor": [
        0,
        0,
        0
      ],
      "name": "01_-_Default",
      "pbrMetallicRoughness": {
        "baseColorFactor": [
          0.0110369265,
          0.023273157799999999,
          0.049994880999999998,
          1
        ],
        "metallicFactor": 0,
        "roughnessFactor": 0.89297135959999996
      }
    },
    {
      "alphaCutoff": 0.068788109799999997,
      "alphaMode": "MASK",
      "doubleSided": true,
      "name": "02_-_Default",
      "pbrMetallicRoughness": {
        "baseColorFactor": [
          1,
          1,
          1,
          1
        ],
        "baseColorTexture": {
          "index": 0,
          "texCoord": 0
        },
        "metallicFactor": 0,
        "metallicRoughnessTexture": {
          "index": 1,
          "texCoord": 0
        },
        "roughnessFactor": 0.89297135959999996
      }
    },
    {
      "alphaCutoff": 0.2273246951,
      "alphaMode": "MASK",
      "doubleSided": true,
      "name": "03_-_Default",
      "pbrMetallicRoughness": {
        "baseColorFactor": [
          1,
          1,
          1,
          1
        ],
        "baseColorTexture": {
          "index": 2,
          "texCoord": 0
        },
        "metallicFactor": 1,
        "metallicRoughnessTexture": {
          "index": 3,
          "texCoord": 0
        },
        "roughnessFactor": 0.89297135959999996
      }
    }
  ],
  "meshes": [
    {
      "name": "base_Mesh_Fence_01 - Default_0",
      "primitives": [
        {
          "attributes": {
            "NORMAL": 1,
            "POSITION": 0,
            "TANGENT": 2,
            "TEXCOORD_0": 3
          },
          "indices": 4,
          "material": 0,
          "mode": 4
        }
      ]
    },
    {
      "name": "Wire_Mesh_Fence_02 - Default_0",
      "primitives": [
        {
          "attributes": {
            "NORMAL": 6,
            "POSITION": 5,
            "TANGENT": 7,
            "TEXCOORD_0": 8,
            "TEXCOORD_1": 9
          },
          "indices": 10,
          "material": 1,
          "mode": 4
        }
      ]
    },
    {
      "name": "barbed_wire_03 - Default_0",
      "primitives": [
        {
          "attributes": {
            "NORMAL": 12,
            "POSITION": 11,
            "TANGENT": 13,
            "TEXCOORD_0": 14,
            "TEXCOORD_1": 15
          },
          "indices": 16,
          "material": 2,
          "mode": 4
        }
      ]
    }
  ],
  "nodes": [
    {
      "children": [
        1
      ],
      "name": "RootNode (gltf orientation matrix)",
      "rotation": [
        -0.70710678118654746,
        -0,
        -0,
        0.70710678118654757
      ]
    },
    {
      "children": [
        2
      ],
      "matrix": [
        1,
        0,
        0,
        0,
        0,
        1,
        0,
        0,
        0,
        0,
        1,
        0,
        0,
        0,
        -3.5835998914990341e-06,
        1
      ],
      "name": "RootNode (model correction matrix)"
    },
    {
      "children": [
        3
      ],
      "matrix": [
        1,
        0,
        0,
        0,
        0,
        0,
        1,
        0,
        0,
        -1,
        0,
        0,
        0,
        0,
        0,
        1
      ],
      "name": "barbed_wire_mesh_fence.FBX"
    },
    {
      "children": [
        4,
        6,
        8
      ],
      "name": "RootNode"
    },
    {
      "children": [
        5
      ],
      "matrix": [
        1,
        0,
        0,
        0,
        0,
        2.2204460492503131e-16,
        -1,
        0,
        0,
        1,
        2.2204460492503131e-16,
        0,
        0,
        0,
        0,
        1
      ],
      "name": "base_Mesh_Fence"
    },
    {
      "mesh": 0,
      "name": "base_Mesh_Fence_01 - Default_0"
    },
    {
      "children": [
        7
      ],
      "matrix": [
        1,
        0,
        0,
        0,
        0,
        2.2204460492503131e-16,
        -1,
        0,
        0,
        1,
        2.2204460492503131e-16,
        0,
        -1.7102737426757812,
        153.63352966308594,
        6.7155347096559126e-06,
        1
      ],
      "name": "Wire_Mesh_Fence"
    },
    {
      "mesh": 1,
      "name": "Wire_Mesh_Fence_02 - Default_0"
    },
    {
      "children": [
        9
      ],
      "matrix": [
        0.99999999999999234,
        8.7422776573475196e-08,
        8.7422776573475183e-08,
        0,
        8.7422768930733309e-08,
        8.7422776462453555e-08,
        -0.99999999999999245,
        0,
        -8.7422784216216382e-08,
        0.99999999999999245,
        8.7422768801914685e-08,
        0,
        244.46365356445312,
        395.66607666015625,
        0.36665830016136169,
        1
      ],
      "name": "barbed_wire"
    },
    {
      "mesh": 2,
      "name": "barbed_wire_03 - Default_0"
    }
  ],
  "samplers": [
    {
      "magFilter": 9729,
      "minFilter": 9987,
      "wrapS": 10497,
      "wrapT": 10497
    }
  ],
  "scene": 0,
  "scenes": [
    {
      "name": "OSG_Scene",
      "nodes": [
        0
      ]
    }
  ],
  "textures": [
    {
      "sampler": 0,
      "source": 0
    },
    {
      "sampler": 0,
      "source": 1
    },
    {
      "sampler": 0,
      "source": 2
    },
    {
      "sampler": 0,
      "source": 3
    }
  ]
}

